<svg width="24" height="24" viewBox="0 0 24 24" fill="none" xmlns="http://www.w3.org/2000/svg">
<path d="M9.06924 6.76814H9.81924V6.7344L9.81621 6.7008L9.06924 6.76814ZM11.7101 4.93742L11.3166 5.57593L11.7101 4.93742ZM5.88045 11.3115L5.20688 10.9816L5.20085 10.9939L5.19528 11.0065L5.88045 11.3115ZM14.3916 18.4407L13.676 18.2162L13.6618 18.2616L13.6534 18.3084L14.3916 18.4407ZM16.0107 18.6988L16.646 19.0974L16.646 19.0974L16.0107 18.6988ZM6.27286 3.40505L5.82183 2.80582L5.82183 2.80582L6.27286 3.40505ZM17.8775 2.02997C17.5378 2.26695 17.4545 2.73446 17.6915 3.07419C17.9285 3.41392 18.396 3.49721 18.7357 3.26023L17.8775 2.02997ZM21.8321 4.88087L21.1761 4.51723L21.1761 4.51723L21.8321 4.88087ZM5.96747 20.9776L6.39518 21.5937L6.40678 21.5857L6.41808 21.5772L5.96747 20.9776ZM3.5308 16.8837C3.73926 16.5258 3.61808 16.0666 3.26014 15.8582C2.90221 15.6497 2.44306 15.7709 2.2346 16.1288L3.5308 16.8837ZM9.81621 6.7008C9.79332 6.44685 9.79661 6.15321 9.84118 5.88355C9.88725 5.60482 9.96732 5.41232 10.0508 5.30419C10.1122 5.22463 10.1726 5.18635 10.2948 5.18381C10.4595 5.18039 10.7832 5.24725 11.3166 5.57593L12.1035 4.29891C11.4485 3.8953 10.8342 3.67229 10.2637 3.68413C9.65083 3.69685 9.17888 3.97895 8.86343 4.38758C8.57004 4.76764 8.42866 5.23115 8.36126 5.63894C8.29236 6.0558 8.29015 6.47919 8.32227 6.83549L9.81621 6.7008ZM11.3166 5.57593C11.6091 5.75614 11.734 5.91226 11.7854 6.01016C11.8306 6.09638 11.8359 6.16758 11.8188 6.24465C11.7746 6.44274 11.5527 6.7437 11.129 6.98802C10.71 7.22971 10.2977 7.29642 10.0654 7.24379C9.96859 7.22185 9.92788 7.18659 9.90434 7.15523C9.87761 7.11962 9.81924 7.01573 9.81924 6.76814H8.31924C8.31924 7.25282 8.43624 7.69813 8.70479 8.05583C8.97654 8.41779 9.35105 8.61994 9.73391 8.7067C10.461 8.87146 11.2659 8.64068 11.8785 8.28739C12.4864 7.93674 13.1104 7.34524 13.2829 6.57077C13.374 6.16156 13.3303 5.72645 13.1138 5.31352C12.9034 4.91227 12.5538 4.57638 12.1035 4.29891L11.3166 5.57593ZM6.55401 11.6414C6.6088 11.5295 6.69925 11.46 6.75377 11.4472C6.77018 11.4433 6.81622 11.435 6.90997 11.4718C7.01214 11.512 7.17779 11.6095 7.39991 11.8363L8.47152 10.7867C7.81936 10.1209 7.10905 9.8233 6.41156 9.98674C5.76957 10.1372 5.38046 10.6272 5.20688 10.9816L6.55401 11.6414ZM7.39991 11.8363C7.43849 11.8757 7.42012 11.8727 7.42091 11.8476C7.42092 11.8471 7.41732 11.9008 7.34205 12.0059C7.18489 12.2253 6.86376 12.4579 6.53798 12.5687C6.37979 12.6226 6.26977 12.6304 6.2158 12.6249C6.17186 12.6204 6.2225 12.6162 6.2695 12.6783C6.30923 12.7307 6.26418 12.724 6.28037 12.5387C6.2966 12.3531 6.37035 12.0551 6.56561 11.6165L5.19528 11.0065C4.96236 11.5296 4.82203 11.9967 4.78607 12.4081C4.75008 12.8198 4.81474 13.2421 5.07392 13.5841C5.34036 13.9358 5.72017 14.0819 6.06293 14.1171C6.39565 14.1511 6.72987 14.0879 7.02127 13.9888C7.59467 13.7936 8.19412 13.3923 8.56149 12.8794C8.74848 12.6183 8.90812 12.2814 8.92018 11.8943C8.933 11.4825 8.77548 11.097 8.47152 10.7867L7.39991 11.8363ZM15.1072 18.6653C15.1144 18.6424 15.1209 18.6363 15.1213 18.6359C15.1229 18.6342 15.1299 18.6273 15.1489 18.6191C15.1945 18.5997 15.2756 18.5887 15.3624 18.607C15.4023 18.6154 15.4284 18.6271 15.4401 18.6337C15.4531 18.6411 15.4356 18.6347 15.4109 18.6C15.3825 18.5601 15.3538 18.4942 15.3532 18.4136C15.3527 18.3354 15.3788 18.2947 15.3755 18.3001L16.646 19.0974C16.7722 18.8963 16.855 18.6606 16.8532 18.403C16.8513 18.1429 16.7634 17.9133 16.6328 17.7299C16.386 17.3834 16.0003 17.2084 15.6714 17.1392C15.0415 17.0066 14.0007 17.1814 13.676 18.2162L15.1072 18.6653ZM15.3755 18.3001C15.2559 18.4906 15.1091 18.6517 14.9716 18.7613C14.9035 18.8155 14.846 18.8505 14.8039 18.8708C14.7594 18.8921 14.7491 18.8889 14.7707 18.887C14.7966 18.8847 14.87 18.8852 14.9558 18.933C15.0453 18.9828 15.087 19.05 15.0998 19.0781C15.1089 19.0982 15.0945 19.0775 15.0911 18.9855C15.0879 18.896 15.096 18.7619 15.1298 18.5731L13.6534 18.3084C13.5641 18.8061 13.5524 19.2982 13.734 19.6982C13.8328 19.9158 13.9935 20.114 14.2258 20.2434C14.4546 20.3708 14.695 20.3996 14.903 20.3811C15.2936 20.3466 15.6446 20.143 15.9063 19.9344C16.1837 19.7134 16.4418 19.4229 16.646 19.0974L15.3755 18.3001ZM3.92316 16.5997C3.26354 15.3662 2.59585 13.2224 2.78343 10.8849C2.96855 8.57795 3.98516 6.06562 6.72388 4.00428L5.82183 2.80582C2.71044 5.14766 1.50459 8.06879 1.28824 10.7649C1.07434 13.4304 1.82618 15.8592 2.6004 17.3071L3.92316 16.5997ZM6.72388 4.00428C9.15026 2.17802 11.6549 1.69118 13.747 1.8475C15.8727 2.00635 17.5164 2.82248 18.2212 3.51618L19.2734 2.44715C18.2576 1.44731 16.2481 0.530212 13.8588 0.351674C11.4358 0.170622 8.56353 0.742238 5.82183 2.80582L6.72388 4.00428ZM18.7357 3.26023C19.293 2.87152 19.9662 2.47266 20.6067 2.18019C21.2772 1.87408 21.8021 1.73618 22.1037 1.75102C22.2377 1.75762 22.2335 1.78985 22.1981 1.75412C22.1571 1.71279 22.2009 1.71033 22.2003 1.88418C22.1991 2.28379 21.9644 3.09536 21.1761 4.51723L22.488 5.24452C23.2862 3.80473 23.6979 2.70106 23.7003 1.88873C23.7016 1.45661 23.5865 1.02401 23.2632 0.697961C22.9455 0.377524 22.5355 0.270473 22.1775 0.25284C21.4948 0.219224 20.6904 0.493028 19.9837 0.815685C19.2472 1.15198 18.4955 1.59893 17.8775 2.02997L18.7357 3.26023ZM21.1761 4.51723C19.6476 7.27443 16.743 10.4887 13.6792 13.4153C10.6289 16.3291 7.47886 18.9035 5.51687 20.3781L6.41808 21.5772C8.42224 20.0709 11.618 17.4586 14.7153 14.5C17.799 11.5543 20.8437 8.21063 22.488 5.24452L21.1761 4.51723ZM5.53976 20.3616C4.88337 20.8172 4.11152 21.2389 3.40442 21.4992C3.05115 21.6293 2.7327 21.7121 2.46523 21.7449C2.19116 21.7785 2.01896 21.7536 1.92508 21.7181C1.85714 21.6924 1.82705 21.6637 1.80036 21.6C1.76217 21.509 1.71997 21.3038 1.78009 20.9107C1.90173 20.1154 2.39666 18.8311 3.5308 16.8837L2.2346 16.1288C1.07719 18.1162 0.463054 19.6004 0.297333 20.684C0.213773 21.2303 0.233311 21.7422 0.417184 22.1804C0.612553 22.646 0.96485 22.9587 1.39451 23.1211C1.79823 23.2738 2.23886 23.2839 2.64773 23.2338C3.0632 23.1828 3.49782 23.0633 3.92263 22.9069C4.77168 22.5943 5.65607 22.1068 6.39518 21.5937L5.53976 20.3616ZM5.95398 21.5745C7.24087 22.5538 9.567 23.6199 12.2358 23.739C14.9389 23.8597 17.9889 23.0058 20.6213 20.144L19.5174 19.1285C17.2142 21.6323 14.6087 22.3434 12.3027 22.2405C9.96242 22.136 7.92577 21.1901 6.86235 20.3808L5.95398 21.5745ZM20.6213 20.144C23.2471 17.2895 23.9233 14.1703 23.7146 11.4741C23.5081 8.80574 22.4377 6.55205 21.5586 5.33576L20.3429 6.21442C21.0796 7.2338 22.0363 9.22789 22.2191 11.5898C22.3997 13.9238 21.8273 16.6174 19.5174 19.1285L20.6213 20.144Z" fill="#8D8989"/>
</svg>
