<svg width="46" height="45" viewBox="0 0 46 45" fill="none" xmlns="http://www.w3.org/2000/svg">
<path fill-rule="evenodd" clip-rule="evenodd" d="M45.5 38C45.5 41.866 42.366 45 38.5 45L7.5 45C3.63401 45 0.5 41.866 0.5 38L0.5 7C0.5 3.13401 3.63401 0 7.5 0L38.5 0C42.366 0 45.5 3.13401 45.5 7L45.5 38ZM22.1868 32.8132C21.7377 32.3641 21.7377 31.6359 22.1868 31.1868L29.2237 24.15L13 24.15C12.3649 24.15 11.85 23.6351 11.85 23C11.85 22.3649 12.3649 21.85 13 21.85L29.2237 21.85L22.1868 14.8132C21.7377 14.3641 21.7377 13.6359 22.1868 13.1868C22.6359 12.7377 23.3641 12.7377 23.8132 13.1868L31.399 20.7726C32.6291 22.0028 32.6291 23.9972 31.399 25.2274L23.8132 32.8132C23.3641 33.2623 22.6359 33.2623 22.1868 32.8132Z" fill="#131313"/>
</svg>
