<svg width="15" height="19" viewBox="0 0 15 19" fill="none" xmlns="http://www.w3.org/2000/svg">
<path d="M10.6295 4.79418C10.6295 4.97139 10.6176 5.1486 10.5958 5.32379C10.6057 5.25331 10.6156 5.18082 10.6235 5.11034C10.576 5.46073 10.485 5.80105 10.3524 6.12727C10.3781 6.06283 10.4058 5.99839 10.4315 5.93396C10.2989 6.25213 10.1287 6.55016 9.92084 6.82403L10.0455 6.66092C9.83968 6.93076 9.60017 7.17442 9.33492 7.38385L9.49526 7.25698C9.22605 7.46641 8.9331 7.64161 8.62034 7.77653C8.68369 7.75035 8.74703 7.72216 8.81037 7.69598C8.4897 7.8309 8.15517 7.92353 7.81075 7.97186C7.88003 7.96179 7.95129 7.95172 8.02057 7.94367C7.67417 7.98998 7.32578 7.98998 6.97938 7.94367C7.04866 7.95374 7.11992 7.96381 7.1892 7.97186C6.84478 7.92353 6.51025 7.8309 6.18958 7.69598C6.25292 7.72216 6.31627 7.75035 6.37961 7.77653C6.06685 7.64161 5.7739 7.46843 5.50469 7.25698L5.66503 7.38385C5.39978 7.17442 5.16027 6.93076 4.9544 6.66092L5.07911 6.82403C4.87325 6.55016 4.70104 6.25213 4.56841 5.93396C4.59414 5.99839 4.62186 6.06283 4.64759 6.12727C4.51497 5.80105 4.42391 5.46073 4.37641 5.11034C4.3863 5.18082 4.3962 5.25331 4.40412 5.32379C4.35859 4.97139 4.35859 4.61697 4.40412 4.26456C4.39422 4.33505 4.38432 4.40754 4.37641 4.47802C4.42391 4.12763 4.51497 3.78731 4.64759 3.46108C4.62186 3.52552 4.59414 3.58996 4.56841 3.6544C4.70104 3.33623 4.87127 3.0382 5.07911 2.76433L4.9544 2.92744C5.16027 2.6576 5.39978 2.41394 5.66503 2.20451L5.50469 2.33137C5.7739 2.12194 6.06685 1.94675 6.37961 1.81183C6.31627 1.83801 6.25292 1.8662 6.18958 1.89238C6.51025 1.75746 6.84478 1.66482 7.1892 1.61649C7.11992 1.62656 7.04866 1.63663 6.97938 1.64469C7.32578 1.59837 7.67417 1.59837 8.02057 1.64469C7.95129 1.63462 7.88003 1.62455 7.81075 1.61649C8.15517 1.66482 8.4897 1.75746 8.81037 1.89238C8.74703 1.8662 8.68369 1.83801 8.62034 1.81183C8.9331 1.94675 9.22605 2.11993 9.49526 2.33137L9.33492 2.20451C9.60017 2.41394 9.83968 2.6576 10.0455 2.92744L9.92084 2.76433C10.1267 3.0382 10.2989 3.33623 10.4315 3.6544C10.4058 3.58996 10.3781 3.52552 10.3524 3.46108C10.485 3.78731 10.576 4.12763 10.6235 4.47802C10.6136 4.40754 10.6038 4.33505 10.5958 4.26456C10.6176 4.43976 10.6275 4.61697 10.6295 4.79418C10.6315 5.21505 10.9917 5.61981 11.4213 5.59967C11.8488 5.57954 12.215 5.24526 12.213 4.79418C12.2091 3.8296 11.924 2.84286 11.3658 2.0575C11.2154 1.84606 11.0551 1.63865 10.8769 1.45137C10.6968 1.26208 10.4988 1.09896 10.293 0.939878C9.91886 0.649899 9.5012 0.436443 9.0578 0.271316C7.27036 -0.395232 5.11474 0.198821 3.9053 1.69704C3.73902 1.90245 3.58067 2.1159 3.44607 2.34547C3.31146 2.57302 3.20655 2.81467 3.10956 3.06035C2.92745 3.51545 2.83442 3.99875 2.79681 4.48809C2.72357 5.44663 2.96902 6.44746 3.45992 7.26906C3.93301 8.06248 4.64759 8.74312 5.48292 9.12775C5.72837 9.24052 5.97976 9.34523 6.24105 9.41974C6.50035 9.49224 6.76362 9.53251 7.03085 9.56473C7.51779 9.62313 8.01463 9.58285 8.49564 9.48418C10.3227 9.1056 11.8528 7.50467 12.1358 5.62585C12.1774 5.35198 12.2091 5.07812 12.2091 4.80022C12.2111 4.37935 11.8429 3.97459 11.4173 3.99472C10.9897 4.00882 10.6295 4.3431 10.6295 4.79418ZM13.2562 17.3861H3.09966C2.65033 17.3861 2.20099 17.3901 1.75166 17.3861C1.70217 17.3861 1.65268 17.3821 1.60518 17.376C1.67446 17.3861 1.74572 17.3962 1.815 17.4042C1.73582 17.3921 1.6606 17.37 1.58736 17.3398C1.65071 17.366 1.71405 17.3942 1.77739 17.4203C1.69821 17.3861 1.62497 17.3418 1.55569 17.2874L1.71603 17.4143C1.65664 17.3639 1.60122 17.3096 1.55371 17.2492L1.67842 17.4123C1.62497 17.3418 1.5834 17.2673 1.54777 17.1867C1.57351 17.2512 1.60122 17.3156 1.62695 17.3801C1.59726 17.3056 1.57747 17.227 1.56361 17.1485C1.57351 17.219 1.5834 17.2915 1.59132 17.3619C1.55965 17.1183 1.58142 16.8605 1.58142 16.6148V15.753C1.58142 15.5375 1.5933 15.324 1.62101 15.1106C1.61112 15.1811 1.60122 15.2535 1.5933 15.324C1.64873 14.9112 1.75562 14.5064 1.91595 14.1218C1.89022 14.1863 1.86251 14.2507 1.83677 14.3151C1.99117 13.9486 2.18912 13.6043 2.42863 13.2881L2.30392 13.4512C2.54344 13.1391 2.81858 12.8572 3.12737 12.6135L2.96704 12.7404C3.27781 12.4967 3.6163 12.2954 3.97656 12.1383C3.91321 12.1645 3.84987 12.1927 3.78653 12.2188C4.1646 12.0577 4.56049 11.947 4.96826 11.8906C4.89898 11.9007 4.82772 11.9107 4.75844 11.9188C5.0514 11.8805 5.34238 11.8785 5.63731 11.8785H9.25971C9.58631 11.8785 9.91094 11.8765 10.2376 11.9188C10.1683 11.9087 10.097 11.8987 10.0277 11.8906C10.4335 11.947 10.8314 12.0557 11.2095 12.2188C11.1461 12.1927 11.0828 12.1645 11.0194 12.1383C11.3797 12.2954 11.7182 12.4967 12.029 12.7404L11.8686 12.6135C12.1754 12.8572 12.4526 13.1371 12.6921 13.4512L12.5674 13.2881C12.8069 13.6043 13.0048 13.9486 13.1592 14.3151C13.1335 14.2507 13.1058 14.1863 13.08 14.1218C13.2384 14.5064 13.3473 14.9092 13.4027 15.324C13.3928 15.2535 13.3829 15.1811 13.375 15.1106C13.4126 15.4146 13.4146 15.7167 13.4146 16.0228V17.0196C13.4146 17.1344 13.4185 17.2492 13.4047 17.3619C13.4146 17.2915 13.4245 17.219 13.4324 17.1485C13.4205 17.229 13.3987 17.3056 13.369 17.3801C13.3948 17.3156 13.4225 17.2512 13.4482 17.1867C13.4146 17.2673 13.371 17.3418 13.3176 17.4123L13.4423 17.2492C13.3928 17.3096 13.3393 17.366 13.28 17.4143L13.4403 17.2874C13.371 17.3418 13.2978 17.3841 13.2186 17.4203C13.2819 17.3942 13.3453 17.366 13.4086 17.3398C13.3354 17.37 13.2582 17.3901 13.181 17.4042C13.2503 17.3942 13.3215 17.3841 13.3908 17.376C13.3473 17.3821 13.3017 17.3841 13.2562 17.3861C13.0523 17.3881 12.8425 17.4747 12.696 17.6217C12.5594 17.7607 12.4545 17.9902 12.4644 18.1916C12.4842 18.6225 12.8128 19.0031 13.2562 18.9971C14.0262 18.985 14.7032 18.4735 14.9288 17.7224C15.0179 17.4244 14.9981 17.1042 14.9981 16.7981C14.9981 16.0973 15.0199 15.4026 14.9011 14.7078C14.7269 13.6909 14.2242 12.7344 13.5353 11.9832C12.8465 11.2321 11.9201 10.6803 10.9403 10.4347C10.3781 10.2937 9.81197 10.2716 9.23793 10.2716H5.72639C5.13849 10.2716 4.55456 10.2997 3.9825 10.4548C3.01059 10.7166 2.09608 11.2744 1.42109 12.0316C0.740159 12.7948 0.247276 13.7533 0.0869409 14.7763C-0.0199493 15.463 0.00182454 16.1517 0.00182454 16.8444C0.00182454 17.1626 -0.0159904 17.4948 0.0968381 17.7989C0.243317 18.1896 0.476892 18.4977 0.819337 18.7293C1.08656 18.9085 1.42505 18.9951 1.74176 18.9991C1.89616 19.0011 2.05055 18.9991 2.20495 18.9991H13.2582C13.6719 18.9991 14.0698 18.6286 14.05 18.1936C14.0302 17.7546 13.7016 17.3861 13.2562 17.3861Z" fill="black"/>
</svg>
