<svg width="21" height="24" viewBox="0 0 21 24" fill="none" xmlns="http://www.w3.org/2000/svg">
<path d="M19 12.423V3.96153C19 3.11538 18.4732 1.33846 16.3659 1H3.81636C3.02391 1.14105 1.35122 1.84622 1 3.53853V20.8846C1.12149 21.5897 1.85484 23 3.81636 23H11.5365M5 5H15M5 18H11M5 9H15M5 14H15M17 18.3376C17.619 16.9248 19.5998 16.2183 19.9712 18.3376C20.3426 20.4569 17 23 17 23C17 23 13.6925 20.457 14.0232 18.3376C14.354 16.2182 16.4487 16.9247 17 18.3376Z" stroke="#8D8989" stroke-width="1.5" stroke-linecap="round"/>
</svg>
